<svg width="530" height="979" viewBox="0 0 530 979" fill="none" xmlns="http://www.w3.org/2000/svg">
<rect x="114" y="39" width="384" height="888" rx="10" fill="#9C8383"/>
<path d="M274 75C274 75 168 131 154 197C140 263 266.54 151.836 266.54 151.836L274 75Z" fill="#633F1D"/>
<path d="M234 487C321.477 326.104 490 139 458 75C426 11 266.54 151.836 266.54 151.836L234 487Z" fill="#6B4522"/>
<path d="M190 667L290 907C290 907 414 885 366 811C318 737 258.732 723.235 190 667Z" fill="black"/>
<path d="M266.54 151.836C266.54 151.836 426 11 458 75C490 139 321.477 326.104 234 487L266.54 151.836ZM266.54 151.836L274 75C274 75 168 131 154 197C140 263 266.54 151.836 266.54 151.836ZM190 667L290 907C290 907 414 885 366 811C318 737 258.732 723.235 190 667Z" stroke="black"/>
<g filter="url(#filter0_d_7_2)">
<path d="M246.156 604.031C247.198 604.031 248.012 604.324 248.598 604.91C249.184 605.431 249.639 606.115 249.965 606.961C250.225 607.807 250.453 608.751 250.648 609.793C250.779 610.835 250.974 611.844 251.234 612.82C251.365 613.016 251.527 613.211 251.723 613.406C251.853 613.536 251.951 613.829 252.016 614.285C252.016 614.611 252.113 615.197 252.309 616.043C252.439 616.889 252.602 617.801 252.797 618.777C252.992 619.689 253.22 620.568 253.48 621.414C253.741 622.26 253.969 622.814 254.164 623.074C254.49 623.465 255.043 623.823 255.824 624.148C256.605 624.409 257.484 624.702 258.461 625.027C259.437 625.288 260.447 625.548 261.488 625.809C262.53 626.069 263.474 626.329 264.32 626.59C264.646 626.72 265.069 626.98 265.59 627.371C266.046 627.762 266.371 628.022 266.566 628.152C267.673 628.608 268.943 629.096 270.375 629.617C271.742 630.073 273.142 630.529 274.574 630.984C276.007 631.375 277.374 631.798 278.676 632.254C279.978 632.645 281.052 632.97 281.898 633.23C282.094 633.361 282.354 633.621 282.68 634.012C283.005 634.337 283.233 634.565 283.363 634.695C284.079 635.021 284.893 635.281 285.805 635.477C286.651 635.607 287.53 635.835 288.441 636.16C288.767 636.29 289.158 636.551 289.613 636.941C290.069 637.332 290.395 637.527 290.59 637.527C291.306 637.723 292.055 637.82 292.836 637.82C293.617 637.82 294.333 637.983 294.984 638.309C295.18 638.439 295.277 638.602 295.277 638.797C295.212 638.992 295.375 639.09 295.766 639.09C296.026 639.09 296.514 639.253 297.23 639.578C297.882 639.839 298.63 640.164 299.477 640.555C300.258 640.945 301.072 641.368 301.918 641.824C302.699 642.215 303.318 642.508 303.773 642.703C304.424 643.029 305.043 643.354 305.629 643.68C306.215 643.94 306.801 644.363 307.387 644.949C307.777 645.34 308.201 645.503 308.656 645.437C309.112 645.372 309.665 645.437 310.316 645.633C311.618 645.893 313.116 646.674 314.809 647.977C316.436 649.279 318.096 650.451 319.789 651.492C321.156 652.339 322.523 653.087 323.891 653.738C325.193 654.324 326.495 655.04 327.797 655.887C329.034 656.668 330.336 657.319 331.703 657.84C333.07 658.361 334.437 659.142 335.805 660.184C336.326 660.509 336.716 660.9 336.977 661.355C337.237 661.811 337.595 662.169 338.051 662.43C338.572 662.69 339.092 662.853 339.613 662.918C340.069 662.918 340.492 662.983 340.883 663.113C341.794 663.504 342.576 663.862 343.227 664.187C343.878 664.448 344.822 664.806 346.059 665.262C346.384 665.392 346.775 665.652 347.23 666.043C347.686 666.434 348.044 666.694 348.305 666.824C349.477 667.215 350.714 667.378 352.016 667.312C353.318 667.182 354.262 667.247 354.848 667.508C355.759 668.029 356.28 668.582 356.41 669.168C356.54 669.689 356.964 670.34 357.68 671.121C358.005 671.447 358.526 671.87 359.242 672.391C359.893 672.911 360.577 673.465 361.293 674.051C362.074 674.637 362.758 675.255 363.344 675.906C363.93 676.557 364.255 677.176 364.32 677.762C364.32 679.91 363.897 681.375 363.051 682.156C362.27 682.937 361.228 683.426 359.926 683.621C358.624 683.751 357.159 683.784 355.531 683.719C353.839 683.654 352.146 683.849 350.453 684.305C350.258 684.37 349.867 684.533 349.281 684.793C348.695 684.988 348.077 685.249 347.426 685.574C346.71 685.835 346.026 686.128 345.375 686.453C344.724 686.714 344.236 686.941 343.91 687.137C343.78 687.267 343.552 687.56 343.227 688.016C342.836 688.406 342.576 688.634 342.445 688.699C341.859 688.895 341.273 689.025 340.687 689.09C340.102 689.09 339.548 689.09 339.027 689.09L336.684 689.09C335.316 689.09 333.949 689.253 332.582 689.578C331.215 689.904 329.848 690.294 328.48 690.75C327.048 691.141 325.616 691.564 324.184 692.02C322.751 692.41 321.286 692.736 319.789 692.996C318.161 693.517 316.111 694.07 313.637 694.656C311.163 695.177 308.852 695.6 306.703 695.926C305.206 696.121 303.741 696.251 302.309 696.316C300.811 696.316 299.379 696.349 298.012 696.414C296.645 696.414 295.342 696.479 294.105 696.609C292.868 696.74 291.697 697 290.59 697.391C289.743 697.716 288.637 698.009 287.27 698.27C285.837 698.53 284.47 698.823 283.168 699.148C281.866 699.409 280.759 699.702 279.848 700.027C278.871 700.353 278.383 700.743 278.383 701.199C278.383 701.199 278.871 701.557 279.848 702.273C280.759 702.99 281.898 703.868 283.266 704.91C284.568 705.887 285.967 706.928 287.465 708.035C288.962 709.077 290.264 709.923 291.371 710.574C291.697 710.77 292.055 710.867 292.445 710.867C292.836 710.867 293.227 710.997 293.617 711.258C293.747 711.323 293.878 711.551 294.008 711.941C294.073 712.332 294.171 712.592 294.301 712.723C294.952 713.048 295.733 713.341 296.645 713.602C297.556 713.862 298.467 714.285 299.379 714.871C300.811 715.913 302.276 717.052 303.773 718.289C305.271 719.461 306.703 720.535 308.07 721.512C308.591 721.772 309.112 721.87 309.633 721.805C310.089 721.74 310.577 721.87 311.098 722.195C311.749 722.586 312.562 723.27 313.539 724.246C314.516 725.223 315.395 726.004 316.176 726.59C316.632 726.85 317.12 726.948 317.641 726.883C318.161 726.818 318.617 726.948 319.008 727.273C320.831 728.445 322.849 729.812 325.062 731.375C327.211 732.872 329.587 734.174 332.191 735.281C332.973 735.607 333.819 735.867 334.73 736.062C335.577 736.193 336.456 736.421 337.367 736.746C337.693 736.941 337.986 737.267 338.246 737.723C338.507 738.113 338.799 738.309 339.125 738.309C339.255 738.309 339.418 738.309 339.613 738.309C339.743 738.243 339.874 738.211 340.004 738.211C340.329 738.211 340.557 738.276 340.687 738.406C340.753 738.471 340.818 738.569 340.883 738.699C340.883 738.764 340.98 738.862 341.176 738.992C341.306 739.057 341.599 739.09 342.055 739.09C342.641 739.09 343.259 739.057 343.91 738.992C344.496 738.927 344.984 738.895 345.375 738.895C345.766 738.895 345.993 738.96 346.059 739.09C346.124 739.155 346.189 739.253 346.254 739.383C346.254 739.448 346.286 739.513 346.352 739.578C346.352 739.643 346.482 739.676 346.742 739.676C347.458 739.676 348.077 739.904 348.598 740.359C349.118 740.75 349.639 741.206 350.16 741.727C350.616 742.247 351.104 742.801 351.625 743.387C352.081 743.908 352.667 744.363 353.383 744.754C354.164 745.275 355.076 745.665 356.117 745.926C357.094 746.186 358.038 746.512 358.949 746.902C359.796 747.293 360.512 747.814 361.098 748.465C361.749 749.116 362.074 750.06 362.074 751.297C362.074 753.185 361.13 754.682 359.242 755.789C357.354 756.831 354.913 757.645 351.918 758.23C348.858 758.751 345.408 759.142 341.566 759.402C337.725 759.598 333.852 759.826 329.945 760.086C327.732 760.216 325.323 760.477 322.719 760.867C320.115 761.258 317.478 761.648 314.809 762.039C312.074 762.43 309.405 762.788 306.801 763.113C304.132 763.439 301.658 763.634 299.379 763.699C298.337 763.764 297.361 764.025 296.449 764.48C295.538 764.871 294.594 765.132 293.617 765.262C292.25 765.457 290.46 765.587 288.246 765.652C286.033 765.717 283.689 765.783 281.215 765.848C278.676 765.848 276.169 765.88 273.695 765.945C271.156 765.945 268.878 766.01 266.859 766.141C264.776 766.271 263.116 766.466 261.879 766.727C260.577 766.987 259.926 767.378 259.926 767.898C259.926 768.549 260.056 769.493 260.316 770.73C260.512 771.902 260.74 773.139 261 774.441C261.26 775.743 261.521 776.98 261.781 778.152C261.977 779.259 262.074 780.105 262.074 780.691C262.074 781.212 261.944 781.635 261.684 781.961C261.358 782.286 261 782.547 260.609 782.742C260.219 782.872 259.893 783.003 259.633 783.133C259.307 783.198 259.145 783.296 259.145 783.426C258.233 783.426 257.549 783.1 257.094 782.449C256.573 781.733 256.215 780.822 256.02 779.715C255.759 778.608 255.596 777.339 255.531 775.906C255.401 774.474 255.303 773.042 255.238 771.609C255.108 770.177 254.913 768.777 254.652 767.41C254.392 765.978 253.969 764.741 253.383 763.699C253.318 763.569 253.09 763.471 252.699 763.406C252.309 763.276 252.081 763.146 252.016 763.016C251.951 762.82 251.82 762.462 251.625 761.941C251.365 761.421 251.104 760.867 250.844 760.281C250.583 759.695 250.355 759.109 250.16 758.523C249.965 757.937 249.867 757.449 249.867 757.059C249.867 756.342 250.03 755.659 250.355 755.008C250.681 754.357 251.039 753.706 251.43 753.055C251.755 752.404 252.081 751.753 252.406 751.102C252.732 750.385 252.895 749.604 252.895 748.758C252.895 747.326 252.732 745.991 252.406 744.754C252.016 743.517 251.82 741.857 251.82 739.773C251.82 739.253 251.853 738.634 251.918 737.918C251.918 737.137 251.951 736.388 252.016 735.672C252.016 734.956 252.081 734.37 252.211 733.914C252.276 733.393 252.406 733.133 252.602 733.133C253.448 733.133 253.871 733.393 253.871 733.914C253.871 734.37 253.969 735.053 254.164 735.965C254.294 736.29 254.49 736.714 254.75 737.234C254.945 737.755 255.206 738.341 255.531 738.992C255.792 739.578 256.02 740.197 256.215 740.848C256.41 741.434 256.508 742.02 256.508 742.605C256.508 743.582 256.508 744.526 256.508 745.437C256.443 746.284 256.41 747.163 256.41 748.074C256.41 749.181 256.605 750.125 256.996 750.906C257.387 751.687 258.428 752.078 260.121 752.078C261.879 752.078 264.06 751.85 266.664 751.395C269.268 750.874 271.872 750.613 274.477 750.613C275.128 750.613 275.811 750.646 276.527 750.711C277.178 750.711 277.829 750.711 278.48 750.711C280.368 750.711 282.354 750.516 284.437 750.125C286.456 749.669 288.279 749.344 289.906 749.148C291.924 748.888 293.845 748.79 295.668 748.855C297.426 748.855 299.151 748.725 300.844 748.465C301.039 748.465 301.365 748.4 301.82 748.27C302.211 748.074 302.667 747.911 303.187 747.781C303.643 747.586 304.132 747.423 304.652 747.293C305.173 747.098 305.596 746.967 305.922 746.902C307.745 746.577 309.763 746.479 311.977 746.609C314.19 746.74 316.306 746.609 318.324 746.219C318.52 746.219 318.78 746.121 319.105 745.926C319.366 745.665 319.724 745.535 320.18 745.535C320.505 745.535 320.831 745.568 321.156 745.633C321.417 745.633 321.71 745.633 322.035 745.633C322.361 745.633 322.589 745.6 322.719 745.535C322.914 745.47 323.337 745.34 323.988 745.145C324.639 744.949 325.323 744.721 326.039 744.461C326.69 744.201 327.276 743.973 327.797 743.777C328.318 743.582 328.578 743.419 328.578 743.289C328.578 743.159 328.09 742.736 327.113 742.02C326.137 741.303 325.062 740.555 323.891 739.773C322.654 738.927 321.482 738.146 320.375 737.43C319.268 736.648 318.585 736.16 318.324 735.965C317.608 735.379 316.99 734.858 316.469 734.402C315.948 733.882 315.427 733.393 314.906 732.937C314.385 732.482 313.832 732.026 313.246 731.57C312.66 731.115 311.944 730.659 311.098 730.203C310.772 730.008 310.414 729.747 310.023 729.422C309.633 729.031 309.242 728.803 308.852 728.738C308.461 728.738 308.168 728.608 307.973 728.348C307.712 728.087 307.484 727.762 307.289 727.371C307.094 726.98 306.898 726.59 306.703 726.199C306.508 725.743 306.247 725.353 305.922 725.027C305.661 724.832 305.303 724.734 304.848 724.734C304.392 724.734 304.034 724.604 303.773 724.344C302.732 723.367 301.462 722.358 299.965 721.316C298.467 720.21 296.807 719.103 294.984 717.996C293.161 716.824 291.208 715.685 289.125 714.578C287.042 713.406 284.893 712.299 282.68 711.258C282.029 710.932 281.28 710.704 280.434 710.574C279.587 710.379 278.871 710.118 278.285 709.793C277.895 709.598 277.634 709.37 277.504 709.109C277.374 708.784 277.146 708.523 276.82 708.328C276.56 708.133 276.007 707.905 275.16 707.645C274.314 707.319 273.402 707.026 272.426 706.766C271.449 706.505 270.505 706.245 269.594 705.984C268.617 705.724 267.868 705.529 267.348 705.398C266.111 705.073 264.776 704.715 263.344 704.324C261.846 703.934 260.251 703.543 258.559 703.152C257.842 703.022 257.159 702.762 256.508 702.371C255.792 701.98 254.978 701.753 254.066 701.687C253.546 701.687 253.025 701.753 252.504 701.883C251.918 701.948 251.397 701.98 250.941 701.98C250.095 701.98 249.607 701.785 249.477 701.395C249.281 701.004 248.891 700.646 248.305 700.32C248.044 700.19 247.654 699.93 247.133 699.539C246.612 699.083 246.091 698.562 245.57 697.977C245.049 697.391 244.594 696.772 244.203 696.121C243.747 695.47 243.52 694.852 243.52 694.266C243.52 694.331 243.552 694.168 243.617 693.777C243.682 693.387 243.78 692.964 243.91 692.508C244.04 691.987 244.171 691.499 244.301 691.043C244.431 690.587 244.561 690.262 244.691 690.066C245.147 689.676 246.026 689.448 247.328 689.383C248.565 689.253 249.639 689.025 250.551 688.699C251.658 688.374 252.602 687.951 253.383 687.43C254.164 686.909 254.913 686.583 255.629 686.453C257.517 686.062 259.47 685.867 261.488 685.867C263.507 685.802 265.46 685.281 267.348 684.305L267.934 684.305C268.65 684.305 269.138 684.435 269.398 684.695C269.659 684.956 270.115 685.086 270.766 685.086C271.156 685.086 271.482 685.053 271.742 684.988C273.305 684.598 275.095 684.272 277.113 684.012C279.132 683.751 281.215 683.523 283.363 683.328C285.512 683.133 287.66 682.937 289.809 682.742C291.957 682.547 293.943 682.319 295.766 682.059C295.766 681.668 296.059 681.44 296.645 681.375C297.165 681.245 297.849 681.147 298.695 681.082C299.477 681.017 300.323 680.984 301.234 680.984C302.146 680.919 302.992 680.789 303.773 680.594C304.099 680.529 304.424 680.431 304.75 680.301C305.01 680.171 305.401 680.04 305.922 679.91C306.833 679.715 307.745 679.617 308.656 679.617C309.568 679.552 310.382 679.389 311.098 679.129C311.228 679.129 311.456 678.999 311.781 678.738C312.042 678.478 312.367 678.217 312.758 677.957C313.148 677.697 313.539 677.469 313.93 677.273C314.32 677.013 314.711 676.883 315.102 676.883C315.232 676.883 315.395 676.915 315.59 676.98C315.72 676.98 315.85 676.98 315.98 676.98C316.241 676.98 316.599 676.883 317.055 676.687C317.445 676.492 317.868 676.329 318.324 676.199C319.171 676.134 320.57 676.004 322.523 675.809C324.411 675.548 327.146 674.734 330.727 673.367C330.857 673.302 330.954 673.172 331.02 672.977C331.02 672.781 331.182 672.651 331.508 672.586C331.768 672.521 332.191 672.488 332.777 672.488C333.298 672.488 333.852 672.456 334.437 672.391C335.023 672.26 335.544 672.098 336 671.902C336.391 671.707 336.586 671.414 336.586 671.023C336.586 670.828 336.488 670.503 336.293 670.047C336.098 669.591 335.837 669.103 335.512 668.582C335.186 667.996 334.828 667.41 334.437 666.824C333.982 666.238 333.493 665.717 332.973 665.262L332.777 665.262C332.647 665.262 332.484 665.294 332.289 665.359C332.094 665.359 331.931 665.359 331.801 665.359C328.871 663.536 326.234 661.941 323.891 660.574C321.547 659.207 319.268 657.97 317.055 656.863C314.841 655.691 312.562 654.617 310.219 653.641C307.875 652.664 305.238 651.687 302.309 650.711C300.876 650.19 299.411 649.702 297.914 649.246C296.417 648.79 294.984 648.302 293.617 647.781L293.52 647.781C293.324 647.781 293.129 647.814 292.934 647.879C292.738 647.879 292.543 647.879 292.348 647.879C292.217 647.879 291.99 647.684 291.664 647.293C291.273 646.902 290.915 646.577 290.59 646.316C290.134 646.056 289.516 645.893 288.734 645.828C287.953 645.763 287.139 645.698 286.293 645.633C285.447 645.568 284.568 645.503 283.656 645.437C282.745 645.372 281.898 645.21 281.117 644.949C281.052 644.884 280.661 644.591 279.945 644.07C279.164 643.549 278.122 643.094 276.82 642.703C275.779 642.378 274.932 642.15 274.281 642.02C273.565 641.889 272.882 641.759 272.23 641.629C271.579 641.499 270.831 641.303 269.984 641.043C269.138 640.783 267.999 640.359 266.566 639.773C266.306 639.643 265.948 639.415 265.492 639.09C264.971 638.699 264.581 638.439 264.32 638.309C263.799 638.113 263.181 637.983 262.465 637.918C261.749 637.788 261.195 637.658 260.805 637.527C260.479 637.527 260.186 637.43 259.926 637.234C259.6 636.974 258.884 636.844 257.777 636.844C257.517 637.104 257.387 637.462 257.387 637.918C257.387 638.699 257.549 639.35 257.875 639.871C258.135 640.392 258.428 640.848 258.754 641.238C259.079 641.629 259.405 641.987 259.73 642.312C259.991 642.638 260.121 642.996 260.121 643.387C260.121 644.038 259.958 644.591 259.633 645.047C259.307 645.503 259.145 645.991 259.145 646.512C259.145 647.033 259.307 647.26 259.633 647.195C259.893 647.065 260.023 647.195 260.023 647.586C260.023 647.781 259.926 648.074 259.73 648.465C259.535 648.855 259.242 649.279 258.852 649.734C258.396 650.125 257.875 650.483 257.289 650.809C256.638 651.134 255.889 651.297 255.043 651.297C253.741 651.297 252.829 650.841 252.309 649.93C251.788 648.953 251.527 647.326 251.527 645.047C251.527 643.94 251.56 642.801 251.625 641.629C251.625 640.392 251.625 639.187 251.625 638.016C251.625 636.909 251.592 635.835 251.527 634.793C251.397 633.686 251.072 632.677 250.551 631.766C250.225 631.18 249.672 630.659 248.891 630.203C248.044 629.747 247.198 629.259 246.352 628.738C245.505 628.152 244.757 627.566 244.105 626.98C243.454 626.329 243.129 625.548 243.129 624.637C243.129 623.595 243.389 622.879 243.91 622.488C244.366 622.033 244.887 621.74 245.473 621.609C246.059 621.414 246.645 621.284 247.23 621.219C247.751 621.154 248.109 621.023 248.305 620.828C247.979 620.177 247.654 619.201 247.328 617.898C246.937 616.531 246.579 615.099 246.254 613.602C245.928 612.039 245.668 610.542 245.473 609.109C245.212 607.677 245.082 606.505 245.082 605.594C245.082 604.747 245.44 604.227 246.156 604.031ZM299.574 535.074C300.941 535.074 302.113 535.107 303.09 535.172C304.066 535.237 304.978 535.335 305.824 535.465C306.671 535.53 307.517 535.66 308.363 535.855C309.21 536.051 310.154 536.279 311.195 536.539C313.474 537.06 315.753 537.516 318.031 537.906C320.245 538.297 322.589 538.785 325.062 539.371C325.323 539.436 325.714 539.632 326.234 539.957C326.755 540.217 327.341 540.51 327.992 540.836C328.643 541.161 329.294 541.487 329.945 541.812C330.596 542.073 331.15 542.268 331.605 542.398C332.908 542.724 333.982 543.245 334.828 543.961C335.674 544.612 336.781 545.296 338.148 546.012C338.865 546.337 339.678 546.565 340.59 546.695C341.436 546.826 342.087 547.086 342.543 547.477C342.738 547.607 343.064 547.965 343.52 548.551C343.975 549.072 344.496 549.69 345.082 550.406C345.668 551.057 346.254 551.741 346.84 552.457C347.426 553.108 347.947 553.629 348.402 554.02C348.728 554.28 349.118 554.54 349.574 554.801C350.03 554.996 350.388 555.224 350.648 555.484C350.844 555.81 350.941 556.201 350.941 556.656C350.941 557.047 351.072 557.405 351.332 557.73C351.527 557.861 351.853 557.991 352.309 558.121C352.699 558.186 352.895 558.349 352.895 558.609C352.895 558.74 352.895 558.935 352.895 559.195C352.829 559.391 352.797 559.553 352.797 559.684C352.797 559.944 353.155 560.53 353.871 561.441C354.522 562.353 355.271 563.362 356.117 564.469C356.964 565.51 357.777 566.52 358.559 567.496C359.34 568.408 359.828 569.026 360.023 569.352C360.349 569.807 360.609 570.296 360.805 570.816C361 571.272 361.26 571.728 361.586 572.184C361.846 572.77 362.139 573.225 362.465 573.551C362.855 573.876 363.181 574.202 363.441 574.527C363.767 574.853 364.027 575.211 364.223 575.602C364.418 575.992 364.516 576.546 364.516 577.262C364.516 577.457 364.385 577.848 364.125 578.434C363.865 579.02 363.507 579.605 363.051 580.191C362.66 580.777 362.172 581.331 361.586 581.852C361 582.307 360.382 582.535 359.73 582.535C359.535 582.535 359.34 582.503 359.145 582.437C358.884 582.372 358.624 582.34 358.363 582.34C358.168 582.34 358.005 582.372 357.875 582.437C356.247 583.219 354.717 584.098 353.285 585.074C351.788 585.986 350.03 586.441 348.012 586.441C347.296 586.441 346.579 586.344 345.863 586.148C345.082 585.953 344.04 585.855 342.738 585.855C341.111 585.855 339.255 585.953 337.172 586.148C335.023 586.344 332.908 586.441 330.824 586.441C328.871 586.441 326.69 586.148 324.281 585.562C321.872 584.977 319.464 584.195 317.055 583.219C314.581 582.242 312.204 581.135 309.926 579.898C307.647 578.596 305.661 577.262 303.969 575.895C302.732 574.918 301.56 573.876 300.453 572.77C299.346 571.663 298.207 570.523 297.035 569.352C295.863 568.115 294.659 566.878 293.422 565.641C292.185 564.404 290.818 563.199 289.32 562.027C288.409 561.311 287.465 560.367 286.488 559.195C285.512 557.958 284.503 556.721 283.461 555.484C283.266 555.159 283.168 554.801 283.168 554.41C283.168 554.02 283.038 553.661 282.777 553.336C282.322 552.685 281.833 552.132 281.312 551.676C280.792 551.22 280.303 550.829 279.848 550.504C279.392 550.178 279.034 549.853 278.773 549.527C278.448 549.202 278.285 548.844 278.285 548.453C278.285 548.128 278.318 547.835 278.383 547.574C278.448 547.249 278.48 546.923 278.48 546.598C278.48 546.207 278.383 545.914 278.187 545.719C277.927 545.523 277.667 545.328 277.406 545.133C277.081 544.937 276.82 544.71 276.625 544.449C276.365 544.124 276.234 543.668 276.234 543.082C276.43 541.845 276.755 540.966 277.211 540.445C277.602 539.859 278.122 539.469 278.773 539.273C279.424 539.078 280.206 538.915 281.117 538.785C282.029 538.655 283.07 538.395 284.242 538.004L289.32 536.539C290.232 536.279 291.111 535.986 291.957 535.66C292.803 535.335 293.585 535.139 294.301 535.074C294.887 535.074 295.31 535.204 295.57 535.465C295.766 535.725 296.124 535.855 296.645 535.855C296.97 535.855 297.393 535.725 297.914 535.465C298.37 535.204 298.923 535.074 299.574 535.074ZM313.441 549.625C312.4 549.625 311.26 549.723 310.023 549.918C308.786 550.048 307.484 550.178 306.117 550.309C304.424 550.439 302.634 550.536 300.746 550.602C298.858 550.602 297.1 550.667 295.473 550.797C293.845 550.927 292.51 551.122 291.469 551.383C290.427 551.578 289.906 551.936 289.906 552.457C289.906 553.173 290.297 554.28 291.078 555.777C291.859 557.21 292.738 558.577 293.715 559.879C294.04 560.204 294.594 560.53 295.375 560.855C296.091 561.181 296.775 561.572 297.426 562.027C299.639 563.655 301.69 565.022 303.578 566.129C305.466 567.171 307.387 568.049 309.34 568.766C311.293 569.482 313.376 570.1 315.59 570.621C317.738 571.142 320.18 571.663 322.914 572.184C324.997 572.574 326.788 572.965 328.285 573.355C329.783 573.746 331.508 573.941 333.461 573.941C339.19 573.941 343.617 573.355 346.742 572.184C349.867 570.947 351.43 569.482 351.43 567.789C351.43 566.747 351.137 565.999 350.551 565.543C349.9 565.022 349.411 564.599 349.086 564.273C348.891 563.948 348.793 563.59 348.793 563.199C348.793 562.743 348.663 562.353 348.402 562.027C347.165 560.66 345.701 559.618 344.008 558.902C342.315 558.186 340.622 557.535 338.93 556.949L338.93 556.363C338.93 556.168 338.865 556.07 338.734 556.07C338.604 556.07 338.441 556.103 338.246 556.168C337.986 556.168 337.79 556.168 337.66 556.168C337.204 556.168 336.716 556.07 336.195 555.875C335.674 555.615 335.186 555.322 334.73 554.996C334.275 554.671 333.852 554.345 333.461 554.02C333.005 553.694 332.647 553.466 332.387 553.336C331.28 552.75 330.271 552.359 329.359 552.164C328.383 551.904 327.439 551.741 326.527 551.676C325.551 551.546 324.607 551.48 323.695 551.48C322.719 551.415 321.71 551.285 320.668 551.09C319.171 550.895 317.836 550.634 316.664 550.309C315.492 549.983 314.418 549.755 313.441 549.625ZM281.312 457.328C281.833 457.458 282.81 457.784 284.242 458.305C285.609 458.826 287.042 459.216 288.539 459.477C290.753 459.867 292.934 460.03 295.082 459.965C297.23 459.9 299.216 459.965 301.039 460.16C303.513 460.486 305.922 460.974 308.266 461.625C310.609 462.211 313.018 462.699 315.492 463.09C317.771 463.48 319.464 463.806 320.57 464.066C321.677 464.262 322.654 464.457 323.5 464.652C324.346 464.783 325.258 464.88 326.234 464.945C327.211 465.01 328.643 465.043 330.531 465.043C331.247 465.043 331.898 465.043 332.484 465.043C333.005 464.978 333.526 464.945 334.047 464.945C334.958 464.945 335.837 465.141 336.684 465.531C337.465 465.922 338.311 466.117 339.223 466.117C339.939 466.117 340.687 466.052 341.469 465.922C342.25 465.792 343.031 465.727 343.812 465.727C344.529 465.727 345.082 465.824 345.473 466.02C345.863 466.15 346.156 466.345 346.352 466.605C346.547 466.801 346.71 467.029 346.84 467.289C346.905 467.484 347.068 467.68 347.328 467.875C347.784 468.135 348.467 468.428 349.379 468.754C350.225 469.014 350.746 469.21 350.941 469.34C351.332 469.665 351.592 470.121 351.723 470.707C351.853 471.293 352.081 471.814 352.406 472.27C353.187 473.246 354.294 474.353 355.727 475.59C357.094 476.762 358.493 477.934 359.926 479.105C361.293 480.212 362.465 481.254 363.441 482.23C364.483 483.207 365.004 483.956 365.004 484.477C365.004 484.802 364.939 485.062 364.809 485.258C364.743 485.388 364.483 485.453 364.027 485.453C363.441 485.453 362.921 485.29 362.465 484.965C362.009 484.639 361.521 484.281 361 483.891C360.544 483.435 360.056 483.012 359.535 482.621C358.949 482.165 358.298 481.84 357.582 481.645L357.484 481.645C356.182 481.645 355.141 481.417 354.359 480.961C353.578 480.505 353.025 480.277 352.699 480.277C352.309 480.277 352.048 480.408 351.918 480.668C351.788 480.928 351.56 481.059 351.234 481.059C350.974 481.059 350.616 480.993 350.16 480.863C349.639 480.668 349.086 480.473 348.5 480.277C347.914 480.082 347.328 479.919 346.742 479.789C346.156 479.594 345.701 479.496 345.375 479.496C344.594 479.496 343.943 479.594 343.422 479.789C342.836 479.919 342.217 479.984 341.566 479.984C340.655 479.984 339.809 479.691 339.027 479.105C338.246 478.454 337.595 478.129 337.074 478.129C336.814 478.194 336.553 478.227 336.293 478.227C336.033 478.227 335.74 478.227 335.414 478.227C333.786 478.227 332.191 478.064 330.629 477.738C329.066 477.348 327.602 476.924 326.234 476.469C324.867 476.013 323.63 475.622 322.523 475.297C321.417 474.906 320.538 474.711 319.887 474.711C319.561 474.711 319.333 474.743 319.203 474.809L318.812 474.809C318.096 474.809 317.38 474.939 316.664 475.199C315.948 475.395 315.232 475.492 314.516 475.492C313.865 475.492 313.148 475.297 312.367 474.906C311.521 474.451 310.642 474.158 309.73 474.027C308.233 473.767 306.475 473.637 304.457 473.637C302.374 473.637 300.486 473.539 298.793 473.344C297.426 473.214 296.156 472.921 294.984 472.465C293.812 472.009 293.129 471.781 292.934 471.781C292.348 472.107 291.827 472.497 291.371 472.953C290.85 473.409 290.59 473.799 290.59 474.125C290.59 474.646 290.785 475.134 291.176 475.59C291.566 476.046 292.055 476.501 292.641 476.957C293.161 477.348 293.747 477.738 294.398 478.129C294.984 478.52 295.473 478.878 295.863 479.203C296.514 479.724 297.361 480.538 298.402 481.645C299.444 482.686 300.323 483.565 301.039 484.281C301.56 484.737 302.211 485.095 302.992 485.355C303.708 485.616 304.066 486.202 304.066 487.113C304.066 487.374 304.034 487.602 303.969 487.797C303.839 487.927 303.546 487.992 303.09 487.992C302.504 487.992 301.951 487.862 301.43 487.602C300.844 487.276 300.29 486.918 299.77 486.527C299.184 486.137 298.663 485.746 298.207 485.355C297.686 484.9 297.165 484.542 296.645 484.281C295.603 483.76 294.333 482.914 292.836 481.742C291.273 480.57 289.613 479.203 287.855 477.641C286.098 476.013 284.307 474.223 282.484 472.27C280.596 470.251 278.741 468.168 276.918 466.02C276.397 465.368 275.974 464.913 275.648 464.652C275.323 464.327 275.095 464.066 274.965 463.871C274.77 463.676 274.672 463.48 274.672 463.285C274.607 463.09 274.574 462.764 274.574 462.309C274.574 460.16 274.932 458.728 275.648 458.012C276.299 457.296 277.276 456.937 278.578 456.937C278.969 456.937 279.392 456.97 279.848 457.035C280.303 457.1 280.792 457.198 281.312 457.328ZM282.68 420.121C283.07 420.186 283.266 420.382 283.266 420.707L283.266 421C283.266 421.391 283.461 421.586 283.852 421.586C284.047 421.586 284.242 421.586 284.437 421.586C284.568 421.521 284.698 421.488 284.828 421.488C285.154 421.488 285.805 421.781 286.781 422.367C287.758 422.953 288.93 423.799 290.297 424.906C291.599 425.948 292.966 427.25 294.398 428.812C295.766 430.31 296.97 432.003 298.012 433.891C298.598 434.932 299.281 436.104 300.062 437.406C300.779 438.708 301.137 440.173 301.137 441.801C301.137 441.931 301.137 442.094 301.137 442.289C301.072 442.419 301.039 442.549 301.039 442.68C301.039 442.745 301.006 443.038 300.941 443.559C300.876 444.079 300.811 444.665 300.746 445.316C300.681 445.902 300.616 446.521 300.551 447.172C300.486 447.823 300.388 448.279 300.258 448.539C300.062 449.125 299.411 449.776 298.305 450.492C297.133 451.208 296.091 452.022 295.18 452.934C294.724 453.389 294.333 453.878 294.008 454.398C293.617 454.919 293.227 455.408 292.836 455.863C292.445 456.254 292.055 456.612 291.664 456.937C291.208 457.198 290.72 457.328 290.199 457.328C290.199 457.133 289.678 456.612 288.637 455.766C287.53 454.854 286.358 453.878 285.121 452.836C283.819 451.729 282.615 450.687 281.508 449.711C280.401 448.734 279.848 448.083 279.848 447.758C279.848 447.497 279.652 447.27 279.262 447.074C278.871 446.814 278.448 446.586 277.992 446.391C277.471 446.195 276.983 445.967 276.527 445.707C276.006 445.447 275.648 445.154 275.453 444.828C275.518 443.982 275.941 443.396 276.723 443.07C277.504 442.745 278.448 442.517 279.555 442.387C280.661 442.257 281.898 442.159 283.266 442.094C284.568 441.964 285.772 441.703 286.879 441.312C287.986 440.922 288.93 440.271 289.711 439.359C290.427 438.448 290.785 437.113 290.785 435.355C290.785 434.965 290.753 434.607 290.687 434.281C290.622 433.891 290.492 433.5 290.297 433.109C290.102 432.719 289.809 432.263 289.418 431.742C289.027 431.156 288.506 430.44 287.855 429.594C287.27 428.812 286.586 428.129 285.805 427.543C284.958 426.892 284.145 426.273 283.363 425.687C282.517 425.036 281.768 424.32 281.117 423.539C280.466 422.758 280.043 421.846 279.848 420.805C280.108 420.674 280.434 420.512 280.824 420.316C281.15 420.121 281.54 420.023 281.996 420.023C282.126 420.023 282.256 420.056 282.387 420.121C282.452 420.121 282.549 420.121 282.68 420.121ZM336 314.641C336.391 314.641 336.781 314.771 337.172 315.031C337.562 315.227 337.921 315.487 338.246 315.812C338.572 316.138 338.93 316.464 339.32 316.789C339.646 317.115 340.004 317.375 340.395 317.57C340.85 317.831 341.339 317.961 341.859 317.961C342.38 317.896 342.868 318.026 343.324 318.352C343.91 318.742 344.919 319.816 346.352 321.574C347.719 323.267 349.867 325.35 352.797 327.824C353.318 328.15 353.936 328.41 354.652 328.605C355.368 328.736 355.987 328.964 356.508 329.289C357.029 329.615 357.647 330.103 358.363 330.754C359.014 331.405 359.633 332.121 360.219 332.902C360.805 333.618 361.293 334.4 361.684 335.246C362.139 336.027 362.367 336.743 362.367 337.395C362.367 338.371 362.139 339.283 361.684 340.129C361.293 340.975 360.772 341.789 360.121 342.57C359.405 343.352 358.591 344.133 357.68 344.914C356.768 345.695 355.857 346.542 354.945 347.453C354.49 347.909 353.871 348.332 353.09 348.723C352.243 349.048 351.397 349.406 350.551 349.797C349.639 350.122 348.76 350.513 347.914 350.969C347.003 351.359 346.221 351.88 345.57 352.531C345.18 352.857 344.854 353.345 344.594 353.996C344.268 354.647 343.845 355.135 343.324 355.461C342.868 355.786 342.413 355.917 341.957 355.852C341.436 355.786 340.915 355.917 340.395 356.242C339.939 356.503 338.995 357.056 337.562 357.902C336.065 358.749 334.568 359.66 333.07 360.637C331.573 361.613 330.238 362.525 329.066 363.371C327.829 364.217 327.211 364.738 327.211 364.934C327.211 365.845 327.667 366.626 328.578 367.277C329.424 367.863 330.466 368.352 331.703 368.742C332.875 369.068 334.145 369.328 335.512 369.523C336.814 369.654 337.888 369.719 338.734 369.719C340.036 369.719 341.208 369.751 342.25 369.816C343.292 369.882 344.333 370.012 345.375 370.207C346.352 370.402 347.393 370.663 348.5 370.988C349.542 371.314 350.746 371.737 352.113 372.258C353.155 372.648 354.294 373.039 355.531 373.43C356.703 373.82 357.484 374.146 357.875 374.406C358.135 374.602 358.363 374.96 358.559 375.48C358.689 376.001 358.949 376.62 359.34 377.336C359.535 377.661 359.828 377.954 360.219 378.215C360.544 378.475 360.837 378.768 361.098 379.094C361.423 379.354 361.684 379.712 361.879 380.168C362.139 380.624 362.27 381.177 362.27 381.828C362.27 383.977 361.618 385.051 360.316 385.051C359.73 385.051 359.112 384.921 358.461 384.66C357.745 384.4 357.061 384.107 356.41 383.781C355.694 383.391 355.043 383.065 354.457 382.805C353.806 382.544 353.22 382.414 352.699 382.414C352.048 382.414 351.43 382.512 350.844 382.707C350.193 382.902 349.411 383.065 348.5 383.195L348.5 383.098C348.5 382.967 348.435 382.837 348.305 382.707C348.109 382.577 347.914 382.512 347.719 382.512C347.654 382.512 347.523 382.577 347.328 382.707C347.068 382.837 346.807 383 346.547 383.195C346.286 383.391 346.059 383.553 345.863 383.684C345.668 383.814 345.57 383.879 345.57 383.879C345.18 383.879 344.691 383.749 344.105 383.488C343.52 383.163 342.836 382.805 342.055 382.414C341.273 382.023 340.427 381.698 339.516 381.437C338.604 381.112 337.628 380.949 336.586 380.949C335.935 380.949 335.284 381.079 334.633 381.34C333.917 381.6 333.168 381.73 332.387 381.73C331.931 381.73 331.312 381.665 330.531 381.535C329.75 381.34 328.904 381.112 327.992 380.852C327.016 380.526 326.104 380.201 325.258 379.875C324.346 379.549 323.565 379.191 322.914 378.801L322.621 378.801C322.1 378.801 321.71 378.931 321.449 379.191C321.124 379.387 320.635 379.484 319.984 379.484C319.659 379.484 319.268 379.387 318.812 379.191C318.292 378.996 317.706 378.866 317.055 378.801C315.492 378.736 314.06 378.638 312.758 378.508C311.391 378.312 310.089 378.117 308.852 377.922C307.615 377.727 306.378 377.531 305.141 377.336C303.839 377.076 302.471 376.848 301.039 376.652C300.323 376.522 299.542 376.229 298.695 375.773C297.784 375.318 296.807 375.09 295.766 375.09C294.854 375.09 294.04 375.22 293.324 375.48C292.543 375.741 291.729 375.871 290.883 375.871C289.776 375.35 288.799 375.057 287.953 374.992C287.042 374.862 285.805 374.667 284.242 374.406C280.727 373.885 277.048 373.267 273.207 372.551C269.366 371.835 265.915 371.477 262.855 371.477C262.009 371.477 261.358 371.607 260.902 371.867C260.447 372.128 259.958 372.258 259.437 372.258C258.786 372.193 257.745 371.997 256.312 371.672C254.88 371.281 253.22 370.891 251.332 370.5C249.379 370.109 247.263 369.751 244.984 369.426C242.641 369.1 240.232 368.937 237.758 368.937C236.846 368.937 236.228 369.003 235.902 369.133C235.512 369.263 235.316 369.491 235.316 369.816C235.316 370.337 235.544 371.021 236 371.867C236.456 372.714 236.977 373.56 237.562 374.406C237.693 374.536 237.953 374.667 238.344 374.797C238.734 374.862 238.962 374.96 239.027 375.09C239.223 375.611 239.385 376.132 239.516 376.652C239.646 377.108 239.971 377.596 240.492 378.117C240.818 378.378 241.078 378.475 241.273 378.41C241.469 378.345 241.697 378.475 241.957 378.801C242.217 379.126 242.413 379.419 242.543 379.68C242.608 379.94 242.901 380.135 243.422 380.266C243.747 380.331 244.138 380.461 244.594 380.656C245.049 380.786 245.505 381.014 245.961 381.34C246.352 381.6 246.71 381.926 247.035 382.316C247.361 382.642 247.523 383.033 247.523 383.488C247.523 383.944 247.393 384.367 247.133 384.758C246.807 385.083 246.124 385.246 245.082 385.246C244.366 385.246 243.747 385.181 243.227 385.051C242.641 384.921 242.185 384.79 241.859 384.66C241.469 384.465 241.143 384.237 240.883 383.977L240.98 383.977L240.98 383.781C240.98 383.781 240.72 383.521 240.199 383C239.678 382.479 239.027 381.828 238.246 381.047C237.465 380.266 236.618 379.419 235.707 378.508C234.796 377.596 233.949 376.717 233.168 375.871C232.908 375.611 232.81 375.253 232.875 374.797C232.94 374.341 232.81 373.983 232.484 373.723C230.857 372.095 229.652 370.956 228.871 370.305C228.025 369.589 227.406 369.133 227.016 368.937C226.56 368.677 226.202 368.482 225.941 368.352C225.616 368.156 225.128 367.766 224.477 367.18C223.5 366.268 222.751 365.389 222.23 364.543C221.71 363.632 220.993 362.557 220.082 361.32C219.691 360.799 219.236 360.344 218.715 359.953C218.129 359.562 217.836 358.977 217.836 358.195C217.836 356.503 218.031 355.493 218.422 355.168C218.812 354.842 219.268 354.68 219.789 354.68C221.156 354.68 222.816 354.81 224.77 355.07C226.658 355.266 228.48 355.493 230.238 355.754C231.996 356.014 233.493 356.275 234.73 356.535C235.967 356.73 236.586 356.861 236.586 356.926C237.302 356.926 237.888 356.828 238.344 356.633C238.799 356.372 239.255 356.242 239.711 356.242C244.529 356.633 249.639 357.349 255.043 358.391C260.447 359.367 265.818 360.116 271.156 360.637C274.411 360.962 277.764 361.158 281.215 361.223C284.665 361.223 287.888 361.483 290.883 362.004C291.664 362.134 292.413 362.395 293.129 362.785C293.78 363.111 294.464 363.339 295.18 363.469C296.352 363.599 297.556 363.664 298.793 363.664C299.965 363.664 301.299 363.729 302.797 363.859C304.294 363.99 306.02 364.25 307.973 364.641C309.926 364.966 312.237 365.552 314.906 366.398C315.102 366.464 315.492 366.626 316.078 366.887C316.664 367.147 316.99 367.245 317.055 367.18C317.445 366.919 317.641 366.626 317.641 366.301C317.641 365.259 317.152 364.12 316.176 362.883C315.134 361.646 313.865 360.409 312.367 359.172C310.87 357.935 309.242 356.698 307.484 355.461C305.661 354.224 304.001 353.02 302.504 351.848C301.983 351.457 301.365 351.132 300.648 350.871C299.932 350.546 299.314 350.155 298.793 349.699C298.012 349.048 296.872 348.202 295.375 347.16C293.878 346.053 292.315 344.979 290.687 343.937C288.995 342.831 287.4 341.822 285.902 340.91C284.34 339.999 283.103 339.38 282.191 339.055C281.736 338.859 281.117 338.566 280.336 338.176C279.49 337.72 278.676 337.264 277.895 336.809C277.048 336.353 276.332 335.962 275.746 335.637C275.095 335.246 274.737 335.051 274.672 335.051C273.695 334.986 273.207 334.432 273.207 333.391C273.207 333 273.402 332.479 273.793 331.828C274.118 331.112 274.574 330.428 275.16 329.777C275.681 329.126 276.299 328.573 277.016 328.117C277.667 327.596 278.285 327.336 278.871 327.336C279.783 327.336 280.792 327.824 281.898 328.801C283.005 329.777 284.079 330.754 285.121 331.73C285.772 332.316 287.009 333.26 288.832 334.562C290.59 335.865 292.576 337.264 294.789 338.762C296.937 340.194 299.053 341.626 301.137 343.059C303.22 344.491 304.88 345.695 306.117 346.672C307.094 347.453 307.908 348.169 308.559 348.82C309.21 349.406 309.796 349.895 310.316 350.285C310.772 350.676 311.228 351.001 311.684 351.262C312.074 351.457 312.595 351.555 313.246 351.555C313.572 351.555 314.125 351.49 314.906 351.359C315.687 351.229 316.599 351.034 317.641 350.773C318.617 350.513 319.659 350.22 320.766 349.895C321.807 349.569 322.784 349.243 323.695 348.918C323.956 348.788 324.314 348.56 324.77 348.234C325.225 347.844 325.583 347.583 325.844 347.453C328.318 346.346 330.922 345.24 333.656 344.133C336.391 343.026 338.93 341.887 341.273 340.715C343.552 339.543 345.473 338.306 347.035 337.004C348.533 335.702 349.281 334.302 349.281 332.805C349.281 332.089 349.118 331.535 348.793 331.145C348.467 330.754 348.077 330.363 347.621 329.973C347.1 329.582 346.547 329.126 345.961 328.605C345.31 328.02 344.659 327.238 344.008 326.262C343.812 325.936 343.715 325.611 343.715 325.285C343.715 324.895 343.682 324.536 343.617 324.211C343.552 323.885 343.389 323.625 343.129 323.43C342.868 323.169 342.38 323.039 341.664 323.039C341.078 323.039 340.687 322.941 340.492 322.746C340.232 322.551 340.102 322.323 340.102 322.062C340.036 321.737 340.004 321.444 340.004 321.184C340.004 320.858 339.906 320.63 339.711 320.5C339.19 320.044 338.604 319.751 337.953 319.621C337.237 319.426 336.586 319.23 336 319.035C335.414 318.775 334.926 318.449 334.535 318.059C334.079 317.668 333.852 317.017 333.852 316.105C334.372 315.975 334.73 315.715 334.926 315.324C335.121 314.934 335.479 314.706 336 314.641ZM272.621 254.18C273.533 254.31 274.639 254.538 275.941 254.863C277.243 255.124 278.578 255.417 279.945 255.742C280.141 255.807 280.531 256.003 281.117 256.328C281.703 256.654 282.322 257.012 282.973 257.402C283.559 257.728 284.145 258.053 284.73 258.379C285.251 258.704 285.609 258.9 285.805 258.965C286.846 259.225 287.595 259.518 288.051 259.844C288.506 260.104 288.865 260.397 289.125 260.723C289.385 261.048 289.678 261.439 290.004 261.895C290.329 262.285 290.883 262.773 291.664 263.359C291.729 263.424 291.794 263.457 291.859 263.457C291.99 263.457 292.152 263.457 292.348 263.457C292.543 263.392 292.706 263.359 292.836 263.359C292.901 263.359 293.096 263.49 293.422 263.75C293.682 263.945 294.008 264.238 294.398 264.629C294.724 265.02 295.049 265.443 295.375 265.898C295.7 266.289 295.896 266.68 295.961 267.07C295.961 267.266 295.766 267.754 295.375 268.535C294.984 269.251 294.626 269.609 294.301 269.609C293.324 269.609 292.283 269.349 291.176 268.828C290.069 268.242 289.027 267.656 288.051 267.07C287.074 266.419 286.228 265.833 285.512 265.312C284.73 264.727 284.21 264.434 283.949 264.434C283.428 264.434 282.94 264.564 282.484 264.824C282.029 265.02 281.443 265.117 280.727 265.117C280.596 265.117 280.303 265.02 279.848 264.824C279.327 264.564 278.773 264.434 278.187 264.434C277.406 264.434 276.788 264.661 276.332 265.117C275.811 265.508 275.323 265.768 274.867 265.898C274.216 266.094 273.467 266.289 272.621 266.484C271.71 266.68 270.831 266.842 269.984 266.973C269.073 267.103 268.227 267.233 267.445 267.363C266.599 267.428 265.883 267.461 265.297 267.461C264.581 267.461 263.897 267.298 263.246 266.973C262.595 266.582 262.009 266.126 261.488 265.605C260.967 265.02 260.544 264.434 260.219 263.848C259.893 263.262 259.665 262.741 259.535 262.285L259.535 262.383C259.47 262.383 259.307 262.025 259.047 261.309C258.786 260.527 258.656 259.779 258.656 259.062C258.656 258.802 258.721 258.411 258.852 257.891L258.852 258.086C258.917 258.086 259.079 257.956 259.34 257.695C259.535 257.435 259.763 257.174 260.023 256.914C260.284 256.589 260.544 256.296 260.805 256.035C261.065 255.775 261.293 255.645 261.488 255.645C261.684 255.645 261.911 255.677 262.172 255.742C262.367 255.807 262.595 255.84 262.855 255.84C262.725 255.84 263.246 255.645 264.418 255.254C265.59 254.863 267.12 254.505 269.008 254.18L268.91 254.277C268.91 254.408 269.04 254.57 269.301 254.766C269.496 254.896 269.659 254.961 269.789 254.961C270.115 254.961 270.505 254.831 270.961 254.57C271.417 254.31 271.97 254.18 272.621 254.18ZM283.461 165.691C284.047 166.147 284.437 166.766 284.633 167.547C284.763 168.263 284.861 169.044 284.926 169.891C284.991 170.737 285.056 171.616 285.121 172.527C285.186 173.439 285.381 174.285 285.707 175.066C285.772 175.197 285.935 175.327 286.195 175.457C286.391 175.522 286.488 175.717 286.488 176.043C286.488 176.173 286.488 176.336 286.488 176.531C286.423 176.661 286.391 176.792 286.391 176.922C286.391 177.443 286.716 177.964 287.367 178.484C288.018 178.94 288.474 179.493 288.734 180.145C289.255 181.316 289.516 182.456 289.516 183.562C289.516 184.669 289.776 185.483 290.297 186.004C291.208 187.046 292.152 187.794 293.129 188.25C294.105 188.641 295.115 188.836 296.156 188.836C297.849 188.836 299.607 188.445 301.43 187.664C303.187 186.818 305.108 186.036 307.191 185.32L307.387 185.32C307.517 185.32 307.68 185.353 307.875 185.418C308.07 185.418 308.233 185.418 308.363 185.418C308.559 185.418 308.656 185.385 308.656 185.32C308.786 185.19 309.275 184.93 310.121 184.539C310.967 184.148 311.846 183.725 312.758 183.27C313.865 182.814 315.069 182.293 316.371 181.707C318.324 181.577 320.277 181.056 322.23 180.145C324.184 179.233 326.137 178.257 328.09 177.215C329.978 176.108 331.866 175.132 333.754 174.285C335.642 173.374 337.497 172.918 339.32 172.918C340.427 172.983 341.631 173.406 342.934 174.187C344.171 174.904 345.342 175.717 346.449 176.629C347.556 177.54 348.5 178.387 349.281 179.168C349.997 179.884 350.355 180.242 350.355 180.242C350.551 180.242 350.746 180.242 350.941 180.242C351.137 180.177 351.299 180.145 351.43 180.145C352.146 180.275 352.992 180.73 353.969 181.512C354.945 182.293 355.922 183.204 356.898 184.246C357.875 185.223 358.754 186.232 359.535 187.273C360.251 188.25 360.674 189.064 360.805 189.715C360.87 189.91 361.033 190.301 361.293 190.887C361.618 191.408 361.944 191.961 362.27 192.547C362.66 193.133 363.018 193.719 363.344 194.305C363.669 194.826 363.865 195.216 363.93 195.477C364.06 196.062 364.158 197.397 364.223 199.48C364.353 201.564 364.418 203.68 364.418 205.828C364.418 207.716 364.353 209.409 364.223 210.906C364.092 212.339 363.767 213.055 363.246 213.055L363.148 213.055C363.148 213.771 363.181 214.389 363.246 214.91C363.376 215.366 363.441 215.919 363.441 216.57C363.441 217.026 363.409 217.547 363.344 218.133C363.279 218.654 363.148 219.174 362.953 219.695C362.758 220.151 362.497 220.542 362.172 220.867C361.911 221.258 361.586 221.453 361.195 221.453C360.414 221.453 359.73 221.062 359.145 220.281C358.559 219.5 357.81 218.751 356.898 218.035C355.922 217.319 354.783 216.505 353.48 215.594C352.113 214.682 350.844 213.771 349.672 212.859C348.435 211.948 347.426 211.069 346.645 210.223C345.798 209.311 345.375 208.53 345.375 207.879C345.375 207.163 345.7 206.772 346.352 206.707C347.003 206.577 347.751 206.512 348.598 206.512C349.379 206.512 350.095 206.447 350.746 206.316C351.397 206.121 351.723 205.6 351.723 204.754C351.723 204.038 351.592 203.517 351.332 203.191C351.006 202.866 350.844 202.345 350.844 201.629C350.844 201.043 350.941 200.62 351.137 200.359C351.332 200.034 351.56 199.773 351.82 199.578C352.081 199.383 352.309 199.122 352.504 198.797C352.699 198.471 352.797 197.951 352.797 197.234C352.797 196.062 352.569 194.76 352.113 193.328C351.592 191.831 351.332 190.138 351.332 188.25C351.332 187.273 351.43 186.297 351.625 185.32C351.43 185.385 351.137 185.418 350.746 185.418C350.29 185.418 349.867 185.385 349.477 185.32C349.086 185.19 348.663 185.125 348.207 185.125C347.23 185.125 346.612 185.451 346.352 186.102C346.026 186.687 345.473 187.176 344.691 187.566C343.389 187.957 342.087 188.185 340.785 188.25C339.418 188.315 338.148 188.543 336.977 188.934C336.846 189.064 336.814 189.227 336.879 189.422C336.879 189.552 336.684 189.65 336.293 189.715C335.967 189.715 335.544 189.715 335.023 189.715C334.503 189.65 333.949 189.617 333.363 189.617C332.647 189.617 331.931 189.65 331.215 189.715C330.434 189.78 329.815 189.975 329.359 190.301C329.099 190.431 328.708 190.854 328.187 191.57C327.667 192.286 327.048 192.807 326.332 193.133C325.421 193.654 324.249 194.012 322.816 194.207C321.384 194.337 320.245 194.728 319.398 195.379C319.268 195.444 319.138 195.704 319.008 196.16C318.878 196.551 318.747 196.779 318.617 196.844C317.445 197.234 315.818 197.462 313.734 197.527C311.586 197.592 309.145 198.081 306.41 198.992C306.28 199.057 306.215 199.187 306.215 199.383C306.215 199.578 306.02 199.676 305.629 199.676C304.717 199.741 303.904 199.806 303.187 199.871C302.406 199.871 301.658 199.871 300.941 199.871C297.426 199.871 294.398 198.764 291.859 196.551C289.32 194.272 287.009 191.505 284.926 188.25C284.6 187.729 284.47 187.241 284.535 186.785C284.6 186.264 284.503 185.776 284.242 185.32C283.982 184.93 283.526 184.637 282.875 184.441C282.224 184.246 281.898 183.758 281.898 182.977C281.898 182.846 281.931 182.716 281.996 182.586C281.996 182.391 281.996 182.228 281.996 182.098C281.996 181.707 281.768 181.382 281.312 181.121C280.792 180.796 280.466 180.47 280.336 180.145C279.815 179.168 279.49 178.061 279.359 176.824C279.164 175.522 278.708 174.22 277.992 172.918C277.797 172.527 277.504 172.234 277.113 172.039C276.658 171.779 276.43 171.453 276.43 171.062C276.43 170.737 276.462 170.411 276.527 170.086C276.592 169.695 276.625 169.337 276.625 169.012C276.625 168.621 276.495 168.263 276.234 167.937C275.909 167.612 275.746 167.254 275.746 166.863C275.746 166.147 276.104 165.529 276.82 165.008C277.536 164.422 278.415 164.129 279.457 164.129C280.824 164.129 282.159 164.65 283.461 165.691Z" fill="black"/>
</g>
<defs>
<filter id="filter0_d_7_2" x="217.836" y="164.129" width="163.168" height="627.297" filterUnits="userSpaceOnUse" color-interpolation-filters="sRGB">
<feFlood flood-opacity="0" result="BackgroundImageFix"/>
<feColorMatrix in="SourceAlpha" type="matrix" values="0 0 0 0 0 0 0 0 0 0 0 0 0 0 0 0 0 0 127 0" result="hardAlpha"/>
<feOffset dx="12" dy="4"/>
<feGaussianBlur stdDeviation="2"/>
<feComposite in2="hardAlpha" operator="out"/>
<feColorMatrix type="matrix" values="0 0 0 0 0 0 0 0 0 0 0 0 0 0 0 0 0 0 0.25 0"/>
<feBlend mode="normal" in2="BackgroundImageFix" result="effect1_dropShadow_7_2"/>
<feBlend mode="normal" in="SourceGraphic" in2="effect1_dropShadow_7_2" result="shape"/>
</filter>
</defs>
</svg>
